<?xml version="1.0" standalone="no"?>
<!DOCTYPE svg PUBLIC "-//W3C//DTD SVG 1.1//EN" "http://www.w3.org/Graphics/SVG/1.1/DTD/svg11.dtd">
<svg version="1.1" xmlns="http://www.w3.org/2000/svg" viewBox="0 0 253 148" width="253" height="148"><!-- svg-source:excalidraw --><metadata></metadata><defs><style class="style-fonts">
      </style></defs><rect x="0" y="0" width="253" height="148" fill="#ffffff"></rect><g stroke-linecap="round" transform="translate(10 10) rotate(0 116.5 64)"><path d="M32 0 C80.02 -1.08, 131.23 -0.74, 201 0 M32 0 C92.25 2.15, 151.45 1.03, 201 0 M201 0 C220.81 1.68, 234.63 12.26, 233 32 M201 0 C224.29 2.15, 233.95 12.14, 233 32 M233 32 C231.67 50.58, 232.26 72.33, 233 96 M233 32 C231.69 55.8, 231.65 78.58, 233 96 M233 96 C232.96 115.61, 220.61 127.31, 201 128 M233 96 C232.52 115.16, 220.07 126.33, 201 128 M201 128 C162.14 126.88, 126.05 127.61, 32 128 M201 128 C160.04 127.97, 119.63 128.63, 32 128 M32 128 C11.93 126.43, 0.77 115.88, 0 96 M32 128 C10.31 127.84, 1.64 115.14, 0 96 M0 96 C0.71 76.04, 0.43 59.43, 0 32 M0 96 C1.14 73.86, 0.27 54.38, 0 32 M0 32 C-0.48 12.18, 11.38 0.35, 32 0 M0 32 C2.07 10.76, 11.49 -1.06, 32 0" stroke="#1e1e1e" stroke-width="2" fill="none"></path></g></svg>